%TF.GenerationSoftware,KiCad,Pcbnew,(6.0.6)*%
%TF.CreationDate,2022-08-28T11:43:10+01:00*%
%TF.ProjectId,task,7461736b-2e6b-4696-9361-645f70636258,rev?*%
%TF.SameCoordinates,Original*%
%TF.FileFunction,Copper,L4,Bot*%
%TF.FilePolarity,Positive*%
%FSLAX46Y46*%
G04 Gerber Fmt 4.6, Leading zero omitted, Abs format (unit mm)*
G04 Created by KiCad (PCBNEW (6.0.6)) date 2022-08-28 11:43:10*
%MOMM*%
%LPD*%
G01*
G04 APERTURE LIST*
G04 Aperture macros list*
%AMRoundRect*
0 Rectangle with rounded corners*
0 $1 Rounding radius*
0 $2 $3 $4 $5 $6 $7 $8 $9 X,Y pos of 4 corners*
0 Add a 4 corners polygon primitive as box body*
4,1,4,$2,$3,$4,$5,$6,$7,$8,$9,$2,$3,0*
0 Add four circle primitives for the rounded corners*
1,1,$1+$1,$2,$3*
1,1,$1+$1,$4,$5*
1,1,$1+$1,$6,$7*
1,1,$1+$1,$8,$9*
0 Add four rect primitives between the rounded corners*
20,1,$1+$1,$2,$3,$4,$5,0*
20,1,$1+$1,$4,$5,$6,$7,0*
20,1,$1+$1,$6,$7,$8,$9,0*
20,1,$1+$1,$8,$9,$2,$3,0*%
G04 Aperture macros list end*
%TA.AperFunction,ComponentPad*%
%ADD10C,0.500000*%
%TD*%
%TA.AperFunction,ComponentPad*%
%ADD11C,1.600000*%
%TD*%
%TA.AperFunction,ComponentPad*%
%ADD12R,1.000000X1.000000*%
%TD*%
%TA.AperFunction,ComponentPad*%
%ADD13O,1.000000X1.000000*%
%TD*%
%TA.AperFunction,ComponentPad*%
%ADD14RoundRect,0.249999X1.550001X-0.790001X1.550001X0.790001X-1.550001X0.790001X-1.550001X-0.790001X0*%
%TD*%
%TA.AperFunction,ComponentPad*%
%ADD15O,3.600000X2.080000*%
%TD*%
%TA.AperFunction,ComponentPad*%
%ADD16C,0.499999*%
%TD*%
%TA.AperFunction,ViaPad*%
%ADD17C,0.800000*%
%TD*%
%TA.AperFunction,Conductor*%
%ADD18C,0.250000*%
%TD*%
G04 APERTURE END LIST*
D10*
%TO.P,U3,P$1,PADDLEGND*%
%TO.N,GND*%
X158026550Y-95585000D03*
%TO.P,U3,P$2,PADDLEGND*%
X156826550Y-95585000D03*
%TO.P,U3,P$3,PADDLEGND*%
X159226550Y-95585000D03*
%TO.P,U3,P$4,PADDLEGND*%
X156826550Y-94385000D03*
%TO.P,U3,P$5,PADDLEGND*%
X158026550Y-94385000D03*
%TO.P,U3,P$6,PADDLEGND*%
X159226550Y-94385000D03*
%TO.P,U3,P$7,PADDLEGND*%
X156826550Y-96785000D03*
%TO.P,U3,P$8,PADDLEGND*%
X158026550Y-96785000D03*
%TO.P,U3,P$9,PADDLEGND*%
X159226550Y-96785000D03*
%TD*%
D11*
%TO.P,R6,1*%
%TO.N,PA0*%
X132900000Y-130800000D03*
%TO.P,R6,2*%
%TO.N,GND*%
X132900000Y-138400000D03*
%TD*%
D12*
%TO.P,J2,1,VTref*%
%TO.N,VDD*%
X170110000Y-113420000D03*
D13*
%TO.P,J2,2,SWDIO/TMS*%
%TO.N,SWDIO*%
X168840000Y-113420000D03*
%TO.P,J2,3,GND*%
%TO.N,GND*%
X170110000Y-112150000D03*
%TO.P,J2,4,SWDCLK/TCK*%
%TO.N,SWDCLK*%
X168840000Y-112150000D03*
%TO.P,J2,5,GND*%
%TO.N,GND*%
X170110000Y-110880000D03*
%TO.P,J2,6,SWO/TDO*%
%TO.N,unconnected-(J2-Pad6)*%
X168840000Y-110880000D03*
%TO.P,J2,7,KEY*%
%TO.N,unconnected-(J2-Pad7)*%
X170110000Y-109610000D03*
%TO.P,J2,8,NC/TDI*%
%TO.N,unconnected-(J2-Pad8)*%
X168840000Y-109610000D03*
%TO.P,J2,9,GNDDetect*%
%TO.N,Net-(J2-Pad9)*%
X170110000Y-108340000D03*
%TO.P,J2,10,~{RESET}*%
%TO.N,Net-(J2-Pad10)*%
X168840000Y-108340000D03*
%TD*%
D14*
%TO.P,J1,1,Pin_1*%
%TO.N,GND*%
X196272500Y-112440000D03*
D15*
%TO.P,J1,2,Pin_2*%
%TO.N,+12V*%
X196272500Y-107360000D03*
%TD*%
D16*
%TO.P,U2,7,EP*%
%TO.N,unconnected-(U2-Pad7)*%
X169790000Y-137359999D03*
X170789998Y-137359999D03*
X170789998Y-136359998D03*
X169790000Y-136359998D03*
%TD*%
D17*
%TO.N,GND*%
X193200000Y-105700000D03*
X193300000Y-111300000D03*
%TO.N,NRST*%
X137500000Y-123235500D03*
X147500000Y-125000000D03*
%TO.N,Net-(C8-Pad1)*%
X142600000Y-119100000D03*
X142100000Y-120709500D03*
%TO.N,Net-(Cb1-Pad2)*%
X192915292Y-116098447D03*
X186800000Y-116100000D03*
%TO.N,Net-(Cb2-Pad2)*%
X183300000Y-101200000D03*
X173100000Y-101100000D03*
%TO.N,+12V*%
X192000000Y-116500000D03*
X189100000Y-112530500D03*
X189000000Y-113979500D03*
X189600000Y-115800000D03*
%TO.N,+5V*%
X138600000Y-134100000D03*
X175600000Y-104400000D03*
X190500000Y-101500000D03*
%TO.N,SWDIO*%
X166800000Y-119400000D03*
X167100000Y-117100000D03*
%TO.N,Net-(J2-Pad10)*%
X166900000Y-108300000D03*
X147500000Y-110000000D03*
%TO.N,SCL*%
X173624500Y-135100000D03*
X172175500Y-135300000D03*
%TO.N,PA0*%
X139000000Y-129900000D03*
X148342299Y-129242299D03*
%TO.N,Net-(U1-Pad13)*%
X148500000Y-120800000D03*
X148260667Y-124275500D03*
%TO.N,Chip_EN*%
X155495500Y-114900000D03*
X140443950Y-111343950D03*
%TO.N,Net-(Re1-Pad2)*%
X148187701Y-105787701D03*
X157381617Y-105207723D03*
%TO.N,Net-(Rr1-Pad1)*%
X167600000Y-95200000D03*
X163800000Y-107100000D03*
%TO.N,Reset_n*%
X162500000Y-113200000D03*
X160357253Y-113981753D03*
%TO.N,SPI_SSN*%
X149500000Y-95300000D03*
X156200000Y-133075500D03*
%TO.N,WAKE*%
X159200000Y-114000000D03*
X146100000Y-104000000D03*
%TO.N,GPIO_6*%
X168224500Y-100300000D03*
X164925500Y-107575500D03*
%TO.N,VDD*%
X145000000Y-122500000D03*
X142500000Y-122500000D03*
X151600000Y-108400000D03*
X155000000Y-103200000D03*
X157800000Y-104300000D03*
%TD*%
D18*
%TO.N,GND*%
X193200000Y-105700000D02*
X193200000Y-111200000D01*
X193200000Y-111200000D02*
X193300000Y-111300000D01*
%TO.N,NRST*%
X137500000Y-123235500D02*
X139264500Y-125000000D01*
X139264500Y-125000000D02*
X147500000Y-125000000D01*
%TO.N,Net-(C8-Pad1)*%
X142600000Y-120209500D02*
X142100000Y-120709500D01*
X142600000Y-119100000D02*
X142600000Y-120209500D01*
%TO.N,Net-(Cb1-Pad2)*%
X186800000Y-116100000D02*
X187825000Y-115075000D01*
X191891845Y-115075000D02*
X192915292Y-116098447D01*
X187825000Y-115075000D02*
X191891845Y-115075000D01*
%TO.N,Net-(Cb2-Pad2)*%
X173100000Y-101100000D02*
X183200000Y-101100000D01*
X183200000Y-101100000D02*
X183300000Y-101200000D01*
%TO.N,+12V*%
X190300000Y-116500000D02*
X189600000Y-115800000D01*
X189000000Y-112630500D02*
X189100000Y-112530500D01*
X189000000Y-113979500D02*
X189000000Y-112630500D01*
X192000000Y-116500000D02*
X190300000Y-116500000D01*
%TO.N,+5V*%
X187600000Y-104400000D02*
X175600000Y-104400000D01*
X138600000Y-134100000D02*
X174800000Y-134100000D01*
X190500000Y-101500000D02*
X187600000Y-104400000D01*
X174800000Y-134100000D02*
X175600000Y-133300000D01*
X175600000Y-133300000D02*
X175600000Y-104400000D01*
%TO.N,SWDIO*%
X167100000Y-119100000D02*
X166800000Y-119400000D01*
X167100000Y-117100000D02*
X167100000Y-119100000D01*
%TO.N,Net-(J2-Pad10)*%
X166900000Y-108300000D02*
X164200000Y-108300000D01*
X162500000Y-110000000D02*
X147500000Y-110000000D01*
X164200000Y-108300000D02*
X162500000Y-110000000D01*
%TO.N,SCL*%
X172375500Y-135100000D02*
X172175500Y-135300000D01*
X173624500Y-135100000D02*
X172375500Y-135100000D01*
%TO.N,PA0*%
X139000000Y-129900000D02*
X147684598Y-129900000D01*
X147684598Y-129900000D02*
X148342299Y-129242299D01*
%TO.N,Net-(U1-Pad13)*%
X148500000Y-120800000D02*
X148500000Y-124036167D01*
X148500000Y-124036167D02*
X148260667Y-124275500D01*
%TO.N,Chip_EN*%
X155495500Y-114900000D02*
X144000000Y-114900000D01*
X144000000Y-114900000D02*
X140443950Y-111343950D01*
%TO.N,Net-(Re1-Pad2)*%
X151299695Y-109125000D02*
X153464340Y-109125000D01*
X153464340Y-109125000D02*
X157381617Y-105207723D01*
X148187701Y-105787701D02*
X148187701Y-106013006D01*
X148187701Y-106013006D02*
X151299695Y-109125000D01*
%TO.N,Net-(Rr1-Pad1)*%
X167500000Y-95300000D02*
X167500000Y-101900000D01*
X167600000Y-95200000D02*
X167500000Y-95300000D01*
X167500000Y-101900000D02*
X163800000Y-105600000D01*
X163800000Y-105600000D02*
X163800000Y-107100000D01*
%TO.N,Reset_n*%
X161718247Y-113981753D02*
X162500000Y-113200000D01*
X160357253Y-113981753D02*
X161718247Y-113981753D01*
%TO.N,SPI_SSN*%
X155975500Y-133300000D02*
X156200000Y-133075500D01*
X149400000Y-95300000D02*
X131500000Y-113200000D01*
X149500000Y-95300000D02*
X149400000Y-95300000D01*
X132900000Y-133300000D02*
X155975500Y-133300000D01*
X131500000Y-131900000D02*
X132900000Y-133300000D01*
X131500000Y-113200000D02*
X131500000Y-131900000D01*
%TO.N,WAKE*%
X159200000Y-112000000D02*
X158300000Y-111100000D01*
X145074695Y-104000000D02*
X146100000Y-104000000D01*
X159200000Y-114000000D02*
X159200000Y-112000000D01*
X144575000Y-104499695D02*
X145074695Y-104000000D01*
X147574695Y-111100000D02*
X146700000Y-110225305D01*
X146700000Y-110225305D02*
X146700000Y-107600000D01*
X158300000Y-111100000D02*
X147574695Y-111100000D01*
X144575000Y-105475000D02*
X144575000Y-104499695D01*
X146700000Y-107600000D02*
X144575000Y-105475000D01*
%TO.N,GPIO_6*%
X168224500Y-104276500D02*
X168224500Y-100300000D01*
X164925500Y-107575500D02*
X168224500Y-104276500D01*
%TO.N,VDD*%
X156100000Y-104300000D02*
X155000000Y-103200000D01*
X152099500Y-106100500D02*
X151600000Y-106100500D01*
X142500000Y-122500000D02*
X145000000Y-122500000D01*
X155000000Y-103200000D02*
X152099500Y-106100500D01*
X151600000Y-106100500D02*
X151600000Y-108400000D01*
X157800000Y-104300000D02*
X156100000Y-104300000D01*
%TD*%
M02*
