%TF.GenerationSoftware,KiCad,Pcbnew,(6.0.6)*%
%TF.CreationDate,2022-08-28T11:43:10+01:00*%
%TF.ProjectId,task,7461736b-2e6b-4696-9361-645f70636258,rev?*%
%TF.SameCoordinates,Original*%
%TF.FileFunction,Soldermask,Top*%
%TF.FilePolarity,Negative*%
%FSLAX46Y46*%
G04 Gerber Fmt 4.6, Leading zero omitted, Abs format (unit mm)*
G04 Created by KiCad (PCBNEW (6.0.6)) date 2022-08-28 11:43:10*
%MOMM*%
%LPD*%
G01*
G04 APERTURE LIST*
G04 Aperture macros list*
%AMRoundRect*
0 Rectangle with rounded corners*
0 $1 Rounding radius*
0 $2 $3 $4 $5 $6 $7 $8 $9 X,Y pos of 4 corners*
0 Add a 4 corners polygon primitive as box body*
4,1,4,$2,$3,$4,$5,$6,$7,$8,$9,$2,$3,0*
0 Add four circle primitives for the rounded corners*
1,1,$1+$1,$2,$3*
1,1,$1+$1,$4,$5*
1,1,$1+$1,$6,$7*
1,1,$1+$1,$8,$9*
0 Add four rect primitives between the rounded corners*
20,1,$1+$1,$2,$3,$4,$5,0*
20,1,$1+$1,$4,$5,$6,$7,0*
20,1,$1+$1,$6,$7,$8,$9,0*
20,1,$1+$1,$8,$9,$2,$3,0*%
G04 Aperture macros list end*
%ADD10R,5.400000X2.900000*%
%ADD11RoundRect,0.250000X-0.475000X0.250000X-0.475000X-0.250000X0.475000X-0.250000X0.475000X0.250000X0*%
%ADD12RoundRect,0.250000X0.787500X0.925000X-0.787500X0.925000X-0.787500X-0.925000X0.787500X-0.925000X0*%
%ADD13RoundRect,0.140000X-0.140000X-0.170000X0.140000X-0.170000X0.140000X0.170000X-0.140000X0.170000X0*%
%ADD14RoundRect,0.147500X-0.147500X-0.172500X0.147500X-0.172500X0.147500X0.172500X-0.147500X0.172500X0*%
%ADD15C,2.200000*%
%ADD16RoundRect,0.250000X-0.325000X-0.650000X0.325000X-0.650000X0.325000X0.650000X-0.325000X0.650000X0*%
%ADD17RoundRect,0.250000X-0.450000X-0.425000X0.450000X-0.425000X0.450000X0.425000X-0.450000X0.425000X0*%
%ADD18RoundRect,0.250000X0.325000X0.650000X-0.325000X0.650000X-0.325000X-0.650000X0.325000X-0.650000X0*%
%ADD19RoundRect,0.250000X0.250000X0.475000X-0.250000X0.475000X-0.250000X-0.475000X0.250000X-0.475000X0*%
%ADD20RoundRect,0.250000X-0.250000X-0.475000X0.250000X-0.475000X0.250000X0.475000X-0.250000X0.475000X0*%
%ADD21RoundRect,0.140000X0.140000X0.170000X-0.140000X0.170000X-0.140000X-0.170000X0.140000X-0.170000X0*%
%ADD22RoundRect,0.150000X-0.587500X-0.150000X0.587500X-0.150000X0.587500X0.150000X-0.587500X0.150000X0*%
%ADD23RoundRect,0.075000X-0.725000X-0.075000X0.725000X-0.075000X0.725000X0.075000X-0.725000X0.075000X0*%
%ADD24RoundRect,0.075000X-0.075000X-0.725000X0.075000X-0.725000X0.075000X0.725000X-0.075000X0.725000X0*%
%ADD25R,1.900000X0.800000*%
%ADD26R,0.800000X1.900000*%
%ADD27R,3.700000X3.700000*%
%ADD28C,0.500000*%
%ADD29RoundRect,0.250000X0.625000X-0.312500X0.625000X0.312500X-0.625000X0.312500X-0.625000X-0.312500X0*%
%ADD30RoundRect,0.200000X0.200000X0.275000X-0.200000X0.275000X-0.200000X-0.275000X0.200000X-0.275000X0*%
%ADD31RoundRect,0.100000X0.100000X-0.130000X0.100000X0.130000X-0.100000X0.130000X-0.100000X-0.130000X0*%
%ADD32RoundRect,0.200000X-0.200000X-0.275000X0.200000X-0.275000X0.200000X0.275000X-0.200000X0.275000X0*%
%ADD33RoundRect,0.250000X0.312500X0.625000X-0.312500X0.625000X-0.312500X-0.625000X0.312500X-0.625000X0*%
%ADD34RoundRect,0.100000X-0.100000X0.130000X-0.100000X-0.130000X0.100000X-0.130000X0.100000X0.130000X0*%
%ADD35C,1.600000*%
%ADD36R,2.540000X2.540000*%
%ADD37R,1.000000X1.000000*%
%ADD38O,1.000000X1.000000*%
%ADD39C,1.000000*%
%ADD40RoundRect,0.250000X-0.650000X0.325000X-0.650000X-0.325000X0.650000X-0.325000X0.650000X0.325000X0*%
%ADD41RoundRect,0.200000X0.275000X-0.200000X0.275000X0.200000X-0.275000X0.200000X-0.275000X-0.200000X0*%
%ADD42R,0.863600X2.692400*%
%ADD43R,10.414000X10.464800*%
%ADD44RoundRect,0.249999X1.550001X-0.790001X1.550001X0.790001X-1.550001X0.790001X-1.550001X-0.790001X0*%
%ADD45O,3.600000X2.080000*%
%ADD46R,0.890000X2.790000*%
%ADD47R,10.580000X6.840000*%
%ADD48RoundRect,0.250000X0.650000X-0.325000X0.650000X0.325000X-0.650000X0.325000X-0.650000X-0.325000X0*%
%ADD49RoundRect,0.250000X0.475000X-0.250000X0.475000X0.250000X-0.475000X0.250000X-0.475000X-0.250000X0*%
%ADD50RoundRect,0.250000X-0.625000X0.312500X-0.625000X-0.312500X0.625000X-0.312500X0.625000X0.312500X0*%
%ADD51RoundRect,0.140000X0.170000X-0.140000X0.170000X0.140000X-0.170000X0.140000X-0.170000X-0.140000X0*%
%ADD52RoundRect,0.162400X0.462600X0.417600X-0.462600X0.417600X-0.462600X-0.417600X0.462600X-0.417600X0*%
%ADD53R,1.000000X0.900000*%
%ADD54R,1.100000X0.600000*%
%ADD55RoundRect,0.375000X0.375000X0.725000X-0.375000X0.725000X-0.375000X-0.725000X0.375000X-0.725000X0*%
%ADD56R,0.599999X0.399999*%
%ADD57R,1.500000X2.400000*%
G04 APERTURE END LIST*
D10*
%TO.C,L2*%
X176200000Y-87750000D03*
X176200000Y-97450000D03*
%TD*%
D11*
%TO.C,C_VDD5*%
X168850000Y-117550000D03*
X168850000Y-119450000D03*
%TD*%
D12*
%TO.C,Cout1*%
X174255000Y-126240000D03*
X169330000Y-126240000D03*
%TD*%
D13*
%TO.C,Cinx2*%
X187710000Y-102110000D03*
X188670000Y-102110000D03*
%TD*%
D14*
%TO.C,Dl1*%
X147645000Y-133990000D03*
X148615000Y-133990000D03*
%TD*%
D15*
%TO.C,H1*%
X127500000Y-87500000D03*
%TD*%
D16*
%TO.C,Cin3*%
X185135000Y-106220000D03*
X188085000Y-106220000D03*
%TD*%
D17*
%TO.C,Cout2*%
X175630000Y-101830000D03*
X178330000Y-101830000D03*
%TD*%
D15*
%TO.C,H2*%
X202500000Y-87500000D03*
%TD*%
D18*
%TO.C,C6*%
X139065000Y-121580000D03*
X136115000Y-121580000D03*
%TD*%
D19*
%TO.C,C5*%
X171320000Y-139880000D03*
X169420000Y-139880000D03*
%TD*%
D20*
%TO.C,C_VDD6*%
X150990000Y-112580000D03*
X152890000Y-112580000D03*
%TD*%
D21*
%TO.C,Cinx1*%
X188850000Y-115560000D03*
X187890000Y-115560000D03*
%TD*%
D22*
%TO.C,Q1*%
X143802500Y-109010000D03*
X143802500Y-110910000D03*
X145677500Y-109960000D03*
%TD*%
D23*
%TO.C,U1*%
X150045000Y-118010000D03*
X150045000Y-118510000D03*
X150045000Y-119010000D03*
X150045000Y-119510000D03*
X150045000Y-120010000D03*
X150045000Y-120510000D03*
X150045000Y-121010000D03*
X150045000Y-121510000D03*
X150045000Y-122010000D03*
X150045000Y-122510000D03*
X150045000Y-123010000D03*
X150045000Y-123510000D03*
X150045000Y-124010000D03*
X150045000Y-124510000D03*
X150045000Y-125010000D03*
X150045000Y-125510000D03*
X150045000Y-126010000D03*
X150045000Y-126510000D03*
X150045000Y-127010000D03*
X150045000Y-127510000D03*
X150045000Y-128010000D03*
X150045000Y-128510000D03*
X150045000Y-129010000D03*
X150045000Y-129510000D03*
X150045000Y-130010000D03*
D24*
X151720000Y-131685000D03*
X152220000Y-131685000D03*
X152720000Y-131685000D03*
X153220000Y-131685000D03*
X153720000Y-131685000D03*
X154220000Y-131685000D03*
X154720000Y-131685000D03*
X155220000Y-131685000D03*
X155720000Y-131685000D03*
X156220000Y-131685000D03*
X156720000Y-131685000D03*
X157220000Y-131685000D03*
X157720000Y-131685000D03*
X158220000Y-131685000D03*
X158720000Y-131685000D03*
X159220000Y-131685000D03*
X159720000Y-131685000D03*
X160220000Y-131685000D03*
X160720000Y-131685000D03*
X161220000Y-131685000D03*
X161720000Y-131685000D03*
X162220000Y-131685000D03*
X162720000Y-131685000D03*
X163220000Y-131685000D03*
X163720000Y-131685000D03*
D23*
X165395000Y-130010000D03*
X165395000Y-129510000D03*
X165395000Y-129010000D03*
X165395000Y-128510000D03*
X165395000Y-128010000D03*
X165395000Y-127510000D03*
X165395000Y-127010000D03*
X165395000Y-126510000D03*
X165395000Y-126010000D03*
X165395000Y-125510000D03*
X165395000Y-125010000D03*
X165395000Y-124510000D03*
X165395000Y-124010000D03*
X165395000Y-123510000D03*
X165395000Y-123010000D03*
X165395000Y-122510000D03*
X165395000Y-122010000D03*
X165395000Y-121510000D03*
X165395000Y-121010000D03*
X165395000Y-120510000D03*
X165395000Y-120010000D03*
X165395000Y-119510000D03*
X165395000Y-119010000D03*
X165395000Y-118510000D03*
X165395000Y-118010000D03*
D24*
X163720000Y-116335000D03*
X163220000Y-116335000D03*
X162720000Y-116335000D03*
X162220000Y-116335000D03*
X161720000Y-116335000D03*
X161220000Y-116335000D03*
X160720000Y-116335000D03*
X160220000Y-116335000D03*
X159720000Y-116335000D03*
X159220000Y-116335000D03*
X158720000Y-116335000D03*
X158220000Y-116335000D03*
X157720000Y-116335000D03*
X157220000Y-116335000D03*
X156720000Y-116335000D03*
X156220000Y-116335000D03*
X155720000Y-116335000D03*
X155220000Y-116335000D03*
X154720000Y-116335000D03*
X154220000Y-116335000D03*
X153720000Y-116335000D03*
X153220000Y-116335000D03*
X152720000Y-116335000D03*
X152220000Y-116335000D03*
X151720000Y-116335000D03*
%TD*%
D25*
%TO.C,U3*%
X165876550Y-99185000D03*
X165876550Y-98169000D03*
X165876550Y-97153000D03*
X165876550Y-96137000D03*
X165876550Y-92073000D03*
X165876550Y-90041000D03*
X165876550Y-89025000D03*
X165876550Y-88009000D03*
X165876550Y-86993000D03*
X151146550Y-89031000D03*
X151146550Y-90047000D03*
X151146550Y-91063000D03*
X151146550Y-92079000D03*
X151146550Y-93095000D03*
X151146550Y-94111000D03*
X151146550Y-95127000D03*
X151146550Y-96143000D03*
X151146550Y-97159000D03*
X151146550Y-98175000D03*
D26*
X153046550Y-101855000D03*
X156094550Y-101855000D03*
X157110550Y-101855000D03*
X158126550Y-101855000D03*
X159142550Y-101855000D03*
X160158550Y-101855000D03*
X161174550Y-101855000D03*
X162190550Y-101855000D03*
X163206550Y-101855000D03*
D27*
X158026550Y-95585000D03*
D28*
X158026550Y-95585000D03*
X156826550Y-95585000D03*
X159226550Y-95585000D03*
X156826550Y-94385000D03*
X158026550Y-94385000D03*
X159226550Y-94385000D03*
X156826550Y-96785000D03*
X158026550Y-96785000D03*
X159226550Y-96785000D03*
%TD*%
D29*
%TO.C,Rp2*%
X134310000Y-119212500D03*
X134310000Y-116287500D03*
%TD*%
D13*
%TO.C,C8*%
X143140000Y-120620000D03*
X144100000Y-120620000D03*
%TD*%
D29*
%TO.C,Re1*%
X140100000Y-109825000D03*
X140100000Y-106900000D03*
%TD*%
D30*
%TO.C,R5*%
X134175000Y-123960000D03*
X132525000Y-123960000D03*
%TD*%
D31*
%TO.C,C4*%
X148200000Y-128360000D03*
X148200000Y-127720000D03*
%TD*%
D15*
%TO.C,H4*%
X127620000Y-142500000D03*
%TD*%
D32*
%TO.C,R2*%
X144345000Y-132330000D03*
X145995000Y-132330000D03*
%TD*%
D33*
%TO.C,R7*%
X145492500Y-117300000D03*
X142567500Y-117300000D03*
%TD*%
D34*
%TO.C,C3*%
X148210000Y-126000000D03*
X148210000Y-126640000D03*
%TD*%
D19*
%TO.C,C_VDD4*%
X153420000Y-135220000D03*
X151520000Y-135220000D03*
%TD*%
D35*
%TO.C,R6*%
X132900000Y-130800000D03*
X132900000Y-138400000D03*
%TD*%
D36*
%TO.C,D2*%
X180500000Y-109749500D03*
X180500000Y-105050500D03*
%TD*%
D37*
%TO.C,J2*%
X170110000Y-113420000D03*
D38*
X168840000Y-113420000D03*
X170110000Y-112150000D03*
X168840000Y-112150000D03*
X170110000Y-110880000D03*
X168840000Y-110880000D03*
X170110000Y-109610000D03*
X168840000Y-109610000D03*
X170110000Y-108340000D03*
X168840000Y-108340000D03*
%TD*%
D39*
%TO.C,TP1*%
X168200000Y-98500000D03*
%TD*%
D40*
%TO.C,Cin1*%
X191320000Y-109945000D03*
X191320000Y-112895000D03*
%TD*%
D41*
%TO.C,Rp1*%
X150360000Y-108725000D03*
X150360000Y-107075000D03*
%TD*%
D42*
%TO.C,Vr1*%
X193260000Y-118409600D03*
X191990000Y-118409600D03*
X190720000Y-118409600D03*
X189450000Y-118409600D03*
X188180000Y-118409600D03*
X186910000Y-118409600D03*
X185640000Y-118409600D03*
D43*
X189450000Y-126842400D03*
%TD*%
D44*
%TO.C,J1*%
X196272500Y-112440000D03*
D45*
X196272500Y-107360000D03*
%TD*%
D13*
%TO.C,C7*%
X143270000Y-124930000D03*
X144230000Y-124930000D03*
%TD*%
D46*
%TO.C,Vr2*%
X184650000Y-99060000D03*
X185920000Y-99060000D03*
X187190000Y-99060000D03*
X188460000Y-99060000D03*
X189730000Y-99060000D03*
X191000000Y-99060000D03*
X192270000Y-99060000D03*
D47*
X188460000Y-88710000D03*
%TD*%
D48*
%TO.C,C1*%
X141500000Y-129205000D03*
X141500000Y-126255000D03*
%TD*%
D15*
%TO.C,H3*%
X202500000Y-142500000D03*
%TD*%
D49*
%TO.C,C_VDD2*%
X146810000Y-122090000D03*
X146810000Y-120190000D03*
%TD*%
D50*
%TO.C,Rp3*%
X176100000Y-108967500D03*
X176100000Y-111892500D03*
%TD*%
D32*
%TO.C,R3*%
X166475000Y-133500000D03*
X168125000Y-133500000D03*
%TD*%
D51*
%TO.C,C2*%
X146170000Y-128000000D03*
X146170000Y-127040000D03*
%TD*%
D52*
%TO.C,D1*%
X178970000Y-114100000D03*
X182030000Y-114100000D03*
%TD*%
D19*
%TO.C,Cb2*%
X185690000Y-102740000D03*
X183790000Y-102740000D03*
%TD*%
D53*
%TO.C,SW1*%
X137000000Y-118850000D03*
X137000000Y-114750000D03*
X138600000Y-114750000D03*
X138600000Y-118850000D03*
%TD*%
D54*
%TO.C,Y1*%
X143680000Y-123450000D03*
X143680000Y-122050000D03*
%TD*%
D18*
%TO.C,C_VDD1*%
X142675000Y-137820000D03*
X139725000Y-137820000D03*
%TD*%
D39*
%TO.C,TP2*%
X168200000Y-96300000D03*
%TD*%
D19*
%TO.C,C_VDD3*%
X164500000Y-135180000D03*
X162600000Y-135180000D03*
%TD*%
D55*
%TO.C,L1*%
X180210000Y-119520000D03*
X174710000Y-119520000D03*
%TD*%
D41*
%TO.C,R4*%
X175990000Y-137225000D03*
X175990000Y-135575000D03*
%TD*%
D32*
%TO.C,R1*%
X138375000Y-132250000D03*
X140025000Y-132250000D03*
%TD*%
D50*
%TO.C,Rr1*%
X163400000Y-108837500D03*
X163400000Y-111762500D03*
%TD*%
D20*
%TO.C,Cb1*%
X190850000Y-114800000D03*
X192750000Y-114800000D03*
%TD*%
D18*
%TO.C,Cin2*%
X187915000Y-112030000D03*
X184965000Y-112030000D03*
%TD*%
D48*
%TO.C,Cin4*%
X191360000Y-107965000D03*
X191360000Y-105015000D03*
%TD*%
D56*
%TO.C,U2*%
X168889999Y-135859999D03*
X168889999Y-136859999D03*
X168889999Y-137860001D03*
X171689999Y-137860001D03*
X171689999Y-136859999D03*
X171689999Y-135859999D03*
D57*
X170290000Y-136860000D03*
%TD*%
M02*
